<?xml version="1.0" encoding="UTF-8"?>
<svg width="35px" height="22px" viewBox="0 0 35 22" version="1.1" xmlns="http://www.w3.org/2000/svg" xmlns:xlink="http://www.w3.org/1999/xlink">
    <title>behance</title>
    <g id="Symbols" stroke="none" stroke-width="1" fill="none" fill-rule="evenodd">
        <g id="tablet-footer-light" transform="translate(-746.000000, -63.000000)" fill="#FFFFFF" fill-rule="nonzero">
            <g id="behance">
                <g transform="translate(746.500000, 63.723613)">
                    <path d="M17.3079134,14.6255578 C17.3079134,12.0384007 16.0773338,10.1260323 13.5349759,9.40924419 C15.3899452,8.52585882 16.3573291,7.18748098 16.3573291,5.10571545 C16.3573291,1.00098342 13.28858,-1.8651438e-14 9.74803858,-1.8651438e-14 L2.05165818e-14,-1.8651438e-14 L2.05165818e-14,20.6090587 L10.0210341,20.6090587 C13.7785718,20.6090587 17.3079134,18.8128885 17.3079134,14.6255578 Z M4.54432475,3.51814174 L8.80865413,3.51814174 C10.448027,3.51814174 11.9236026,3.97733414 11.9236026,5.87290275 C11.9236026,7.62287377 10.7756216,8.32706211 9.15164846,8.32706211 L4.54432475,8.32706211 L4.54432475,3.51814174 Z M4.54292477,17.1091167 L4.54292477,11.4336107 L9.49604275,11.4336107 C11.4966096,11.4336107 12.7621887,12.2651969 12.7621887,14.3763619 C12.7621887,16.4581275 11.2516137,17.1091167 9.40224431,17.1091167 L4.54292477,17.1091167 Z" id="Shape"></path>
                    <path d="M26.3139643,20.9996523 C29.8895051,20.9996523 32.2050667,19.3938789 33.3194483,15.9807354 L29.6907083,15.9807354 C29.3001148,17.2547143 27.6901415,17.9281031 26.4413621,17.9281031 C24.032002,17.9281031 22.766423,16.5211264 22.766423,14.129966 L33.5644442,14.129966 C33.9060385,9.34484526 31.2404827,5.26671279 26.3125643,5.26671279 C21.7500398,5.26671279 18.6532911,8.68545617 18.6532911,13.163982 C18.6532911,17.811905 21.5876425,20.9996523 26.3139643,20.9996523 L26.3139643,20.9996523 Z M26.1851664,8.36346151 C28.2501322,8.36346151 29.288915,9.57304148 29.4625121,11.5512087 L22.7720229,11.5512087 C22.9078207,9.5898412 24.213999,8.36346151 26.1851664,8.36346151 Z" id="Shape"></path>
                    <polygon id="Path" points="21.9334368 1.08218208 30.316498 1.08218208 30.316498 3.11214847 21.9334368 3.11214847"></polygon>
                </g>
            </g>
        </g>
    </g>
</svg>