<?xml version="1.0" encoding="UTF-8"?>
<svg width="21px" height="22px" viewBox="0 0 21 22" version="1.1" xmlns="http://www.w3.org/2000/svg" xmlns:xlink="http://www.w3.org/1999/xlink">
    <title>Group</title>
    <g id="Symbols" stroke="none" stroke-width="1" fill="none" fill-rule="evenodd">
        <g id="tablet-footer-light" transform="translate(-706.000000, -63.000000)" fill="#000000" fill-rule="nonzero">
            <g id="Group">
                <g transform="translate(706.000000, 63.723613)">
                    <path d="M15.0668484,-2.13162821e-14 L5.59222299,-2.13162821e-14 C2.50861953,-2.13162821e-14 -7.10542736e-15,2.50861953 -7.10542736e-15,5.59222299 L-7.10542736e-15,15.067006 C-7.10542736e-15,18.1504518 2.50861953,20.6590713 5.59222299,20.6590713 L15.067006,20.6590713 C18.1504518,20.6590713 20.6590713,18.1504518 20.6590713,15.067006 L20.6590713,5.59222299 C20.6590713,2.50861953 18.1504518,-2.13162821e-14 15.0668484,-2.13162821e-14 Z M10.3295357,15.9783429 C7.21472423,15.9783429 4.68072846,13.4443471 4.68072846,10.3295357 C4.68072846,7.21472423 7.21472423,4.68072846 10.3295357,4.68072846 C13.4443471,4.68072846 15.9783429,7.21472423 15.9783429,10.3295357 C15.9783429,13.4443471 13.4443471,15.9783429 10.3295357,15.9783429 L10.3295357,15.9783429 Z M16.11342,6.01290063 C15.1929413,6.01290063 14.4442643,5.26422367 14.4442643,4.34374503 C14.4442643,3.42326639 15.1929413,2.67443178 16.11342,2.67443178 C17.0338986,2.67443178 17.7827332,3.42326639 17.7827332,4.34374503 C17.7827332,5.26422367 17.0338986,6.01290063 16.11342,6.01290063 Z" id="Shape"></path>
                    <path d="M10.3295357,5.89185138 C7.88270169,5.89185138 5.89185138,7.88254409 5.89185138,10.3295357 C5.89185138,12.7763697 7.88270169,14.76722 10.3295357,14.76722 C12.7765273,14.76722 14.76722,12.7763697 14.76722,10.3295357 C14.76722,7.88254409 12.7765273,5.89185138 10.3295357,5.89185138 Z" id="Path"></path>
                    <path d="M16.11342,3.88571232 C15.8609188,3.88571232 15.6553873,4.09124385 15.6553873,4.34374503 C15.6553873,4.59624617 15.8609188,4.8017777 16.11342,4.8017777 C16.3660788,4.8017777 16.5716103,4.59640378 16.5716103,4.34374503 C16.5716103,4.09108624 16.3660788,3.88571232 16.11342,3.88571232 Z" id="Path"></path>
                </g>
            </g>
        </g>
    </g>
</svg>
