<?xml version="1.0" encoding="UTF-8"?>
<svg width="21px" height="22px" viewBox="0 0 21 22" version="1.1" xmlns="http://www.w3.org/2000/svg" xmlns:xlink="http://www.w3.org/1999/xlink">
    <!-- Generator: Sketch 64 (93537) - https://sketch.com -->
    <title>linkedin (1)</title>
    <desc>Created with Sketch.</desc>
    <g id="Page-1" stroke="none" stroke-width="1" fill="none" fill-rule="evenodd">
        <g id="desktop-home-green" transform="translate(-1271.000000, -4412.000000)" fill="#000000" fill-rule="nonzero">
            <g id="linkedin-(1)" transform="translate(1271.000000, 4412.300005)">
                <path d="M17.8441667,0 L3.0625,0 C1.37397789,0 0,1.37397789 0,3.0625 L0,17.8441667 C0,19.5326888 1.37397789,20.9066667 3.0625,20.9066667 L17.8441667,20.9066667 C19.5326888,20.9066667 20.9066667,19.5326888 20.9066667,17.8441667 L20.9066667,3.0625 C20.9066667,1.37397789 19.5326888,0 17.8441667,0 Z M7.39083333,16.5783333 L4.94083333,16.5783333 L4.94083333,8.00333333 L7.39083333,8.00333333 L7.39083333,16.5783333 Z M7.39083333,6.77833333 L4.94083333,6.77833333 L4.94083333,4.32833333 L7.39083333,4.32833333 L7.39083333,6.77833333 Z M15.9658333,16.5783333 L13.5158333,16.5783333 L13.5158333,11.6783333 C13.5158333,11.0029883 12.9661784,10.4533333 12.2908333,10.4533333 C11.6154883,10.4533333 11.0658333,11.0029883 11.0658333,11.6783333 L11.0658333,16.5783333 L8.61583333,16.5783333 L8.61583333,8.00333333 L11.0658333,8.00333333 L11.0658333,8.46510092 C11.7076823,8.2655599 12.1246289,8.00333333 12.9033333,8.00333333 C14.5648991,8.0050879 15.9658333,9.49566406 15.9658333,11.2572396 L15.9658333,16.5783333 Z" id="Shape"></path>
            </g>
        </g>
    </g>
</svg>
