<?xml version="1.0" encoding="UTF-8"?>
<svg width="1495px" height="255px" viewBox="0 0 1495 255" version="1.1" xmlns="http://www.w3.org/2000/svg" xmlns:xlink="http://www.w3.org/1999/xlink">
    <title>our-work-light-mode-full</title>
    <g id="Page-1" stroke="none" stroke-width="1" fill="none" fill-rule="evenodd" opacity="0.07">
        <path d="M118.986,254.428 C158.31,254.428 181.362,239.851 194.244,229.342 C223.737,205.273 239.67,165.949 239.67,129.337 C239.67,96.454 226.788,57.469 203.736,33.739 C191.193,20.857 163.734,0.517 118.308,0.517 C62.712,0.517 34.914,31.366 22.71,49.333 C1.692,80.182 -0.003,114.082 -0.003,126.625 C-0.003,140.863 2.031,186.289 34.236,220.189 C64.746,252.055 104.409,254.428 118.986,254.428 Z M119.325,203.917 C103.731,203.917 89.493,197.815 78.984,186.628 C69.153,176.119 58.983,158.491 58.983,125.947 C58.983,100.522 67.458,71.029 91.527,57.469 C95.934,55.096 105.087,50.689 118.308,50.689 C122.376,50.689 131.19,51.028 141.36,55.096 C154.242,60.52 161.361,68.995 164.412,73.063 C171.531,82.894 180.684,103.234 179.667,133.405 C178.989,152.389 174.243,171.373 160.683,185.95 C145.767,201.883 127.122,203.917 119.325,203.917 Z M331.539,252.394 C353.235,252.394 368.829,243.58 375.27,238.495 C377.304,236.8 379.338,234.766 383.067,230.698 L383.067,247.309 L435.273,247.309 L435.273,70.351 L383.406,70.351 L383.406,180.526 C383.406,185.272 383.067,189.679 381.372,194.086 C378.999,200.527 370.185,210.019 353.574,210.019 C345.777,210.019 341.37,207.646 338.319,205.951 C328.827,200.188 328.488,191.713 328.488,180.526 L328.488,70.351 L275.943,70.351 L275.943,175.78 C275.943,197.476 274.248,225.952 293.91,241.546 C307.809,252.394 327.471,252.394 331.539,252.394 Z M533.583,247.309 L533.583,147.643 C533.583,134.422 535.956,125.608 549.855,120.862 C556.296,118.489 564.432,117.472 566.127,117.133 L583.416,114.421 L583.416,68.317 C576.975,68.995 567.144,69.673 552.906,75.436 C541.38,80.182 536.634,84.928 532.227,88.657 L532.227,70.351 L481.716,70.351 L481.716,247.309 L533.583,247.309 Z M790.884,247.309 L817.326,129.337 L843.429,247.309 L900.042,247.309 L952.926,70.351 L899.025,70.351 L871.566,195.103 L847.158,70.351 L791.562,70.351 L764.781,194.086 L740.034,70.351 L685.116,70.351 L733.593,247.309 L790.884,247.309 Z M1059.372,252.733 C1092.594,252.733 1113.273,240.529 1123.443,232.054 C1135.647,221.884 1154.631,198.832 1154.631,158.83 C1154.631,130.354 1144.122,102.217 1122.087,84.25 C1105.476,71.029 1087.17,66.283 1066.491,65.266 C1021.743,62.554 997.335,80.86 985.131,95.437 C965.13,119.506 964.452,148.321 964.452,158.491 C964.452,195.442 979.368,217.138 989.877,227.308 C1014.285,251.038 1050.219,252.733 1059.372,252.733 Z M1060.05,211.036 C1040.388,211.036 1030.218,199.849 1026.15,193.747 C1022.76,188.323 1016.997,175.441 1016.997,158.152 C1016.997,132.049 1028.184,116.794 1037.676,111.37 C1045.134,106.963 1054.965,106.285 1057.338,106.285 C1071.237,106.285 1078.356,109.675 1083.102,113.065 C1093.272,120.184 1101.747,133.744 1101.747,160.525 C1101.747,186.967 1088.865,211.036 1060.05,211.036 Z M1240.059,247.309 L1240.059,147.643 C1240.059,134.422 1242.432,125.608 1256.331,120.862 C1262.772,118.489 1270.908,117.472 1272.603,117.133 L1289.892,114.421 L1289.892,68.317 C1283.451,68.995 1273.62,69.673 1259.382,75.436 C1247.856,80.182 1243.11,84.928 1238.703,88.657 L1238.703,70.351 L1188.192,70.351 L1188.192,247.309 L1240.059,247.309 Z M1366.167,247.309 L1366.167,192.391 L1388.541,171.034 L1433.967,247.309 L1494.309,247.309 L1425.492,133.405 L1486.512,70.351 L1423.797,70.351 L1366.506,131.032 L1366.506,7.975 L1315.317,7.975 L1315.317,247.309 L1366.167,247.309 Z" id="our-work-light-mode-full" fill="#000000" fill-rule="nonzero"></path>
    </g>
</svg>