<?xml version="1.0" encoding="UTF-8"?>
<svg width="1024px" height="184px" viewBox="0 0 1024 184" version="1.1" xmlns="http://www.w3.org/2000/svg" xmlns:xlink="http://www.w3.org/1999/xlink">
    <title>Ourwork</title>
    <g id="Page-1" stroke="none" stroke-width="1" fill="none" fill-rule="evenodd" opacity="0.15">
        <g id="tablet-home-dark" transform="translate(0.000000, -1105.000000)" fill="#FFFFFF" fill-rule="nonzero">
            <path d="M66.3099023,1288.24464 C94.6231834,1288.24464 111.220624,1277.7492 120.495664,1270.18272 C141.730625,1252.85304 153.202386,1224.53976 153.202386,1198.17912 C153.202386,1174.50336 143.927345,1146.43416 127.329905,1129.34856 C118.298944,1120.07352 98.5284636,1105.42871 65.8217423,1105.42871 C25.7926207,1105.42871 5.77805988,1127.64 -3.00882046,1140.57624 C-18.1417811,1162.78752 -19.3621811,1187.19552 -19.3621811,1196.22648 C-19.3621811,1206.47784 -17.8977011,1239.18456 5.28989987,1263.59256 C27.2571007,1286.53608 55.8144619,1288.24464 66.3099023,1288.24464 Z M66.5539823,1251.87672 C55.3263019,1251.87672 45.0749414,1247.48328 37.5084611,1239.42864 C30.4301409,1231.86216 23.1077406,1219.17 23.1077406,1195.73832 C23.1077406,1177.43232 29.2097408,1156.19736 46.5394215,1146.43416 C49.7124616,1144.7256 56.3026219,1141.55256 65.8217423,1141.55256 C68.7507024,1141.55256 75.0967826,1141.79664 82.4191829,1144.7256 C91.6942233,1148.63088 96.8199035,1154.73288 99.0166236,1157.66184 C104.142304,1164.74016 110.732464,1179.38496 110.000224,1201.10808 C109.512064,1214.77656 106.094944,1228.44504 96.3317435,1238.94048 C85.5922231,1250.41224 72.1678225,1251.87672 66.5539823,1251.87672 Z M219.348068,1286.78016 C234.969189,1286.78016 246.196869,1280.43408 250.83439,1276.77288 C252.29887,1275.55248 253.76335,1274.088 256.44823,1271.15904 L256.44823,1283.11896 L294.036551,1283.11896 L294.036551,1155.7092 L256.69231,1155.7092 L256.69231,1235.0352 C256.69231,1238.45232 256.44823,1241.62536 255.22783,1244.7984 C253.51927,1249.43592 247.173189,1256.27016 235.213269,1256.27016 C229.599429,1256.27016 226.426389,1254.5616 224.229669,1253.3412 C217.507465,1249.25986 217.161122,1243.28938 217.151573,1235.42976 L217.151348,1155.7092 L179.318947,1155.7092 L179.318947,1231.61808 C179.318947,1247.2392 178.098547,1267.74192 192.255187,1278.9696 C202.262468,1286.78016 216.419108,1286.78016 219.348068,1286.78016 Z M364.819754,1283.11896 L364.819754,1211.35944 C364.819754,1201.84032 366.528314,1195.49424 376.535595,1192.07712 C381.173115,1190.36856 387.031035,1189.63632 388.251435,1189.39224 L400.699516,1187.4396 L400.699516,1154.24472 C396.061995,1154.73288 388.983675,1155.22104 378.732315,1159.3704 C370.433594,1162.78752 367.016474,1166.20464 363.843434,1168.88952 L363.843434,1155.7092 L327.475513,1155.7092 L327.475513,1283.11896 L364.819754,1283.11896 Z M550.076482,1283.11896 L569.114722,1198.17912 L587.908883,1283.11896 L628.670245,1283.11896 L666.746726,1155.7092 L627.938005,1155.7092 L608.167524,1245.53064 L590.593763,1155.7092 L550.564642,1155.7092 L531.282321,1244.7984 L513.46448,1155.7092 L473.923518,1155.7092 L508.82696,1283.11896 L550.076482,1283.11896 Z M743.387849,1287.02424 C767.30769,1287.02424 782.196571,1278.23736 789.518971,1272.13536 C798.305851,1264.81296 811.974332,1248.21552 811.974332,1219.41408 C811.974332,1198.91136 804.407852,1178.65272 788.542651,1165.71648 C776.582731,1156.19736 763.40241,1152.78024 748.513529,1152.048 C716.294968,1150.09536 698.721207,1163.27568 689.934327,1173.77112 C675.533606,1191.1008 675.045446,1211.8476 675.045446,1219.17 C675.045446,1245.77472 685.784967,1261.39584 693.351447,1268.71824 C710.925208,1285.80384 736.797689,1287.02424 743.387849,1287.02424 Z M743.876009,1257.0024 C729.719369,1257.0024 722.396968,1248.94776 719.468008,1244.55432 C717.027208,1240.64904 712.877848,1231.374 712.877848,1218.92592 C712.877848,1200.13176 720.932488,1189.14816 727.766729,1185.24288 C733.136489,1182.06984 740.214809,1181.58168 741.923369,1181.58168 C751.93065,1181.58168 757.05633,1184.02248 760.47345,1186.46328 C767.79585,1191.58896 773.89785,1201.35216 773.89785,1220.63448 C773.89785,1239.67272 764.62281,1257.0024 743.876009,1257.0024 Z M873.482494,1283.11896 L873.482494,1211.35944 C873.482494,1201.84032 875.191054,1195.49424 885.198335,1192.07712 C889.835855,1190.36856 895.693775,1189.63632 896.914175,1189.39224 L909.362256,1187.4396 L909.362256,1154.24472 C904.724736,1154.73288 897.646415,1155.22104 887.395055,1159.3704 C879.096335,1162.78752 875.679214,1166.20464 872.506174,1168.88952 L872.506174,1155.7092 L836.138253,1155.7092 L836.138253,1283.11896 L873.482494,1283.11896 Z M964.280258,1283.11896 L964.280258,1243.578 L980.389539,1228.20096 L1013.09626,1283.11896 L1056.5425,1283.11896 L1006.99426,1201.10808 L1050.92866,1155.7092 L1005.77386,1155.7092 L964.524338,1199.39952 L964.524338,1110.79847 L927.668257,1110.79847 L927.668257,1283.11896 L964.280258,1283.11896 Z" id="Ourwork"></path>
        </g>
    </g>
</svg>
